<mxfile host="Electron" modified="2022-07-16T16:05:34.319Z" agent="5.0 (X11; Linux x86_64) AppleWebKit/537.36 (KHTML, like Gecko) draw.io/19.0.2 Chrome/102.0.5005.63 Electron/19.0.3 Safari/537.36" etag="BllHkJvB2MdP-juo6_Zo" compressed="false" version="19.0.2" type="device">
  <diagram id="kntlUtY1XAIY34VaBQxC" name="Page-1">
    <mxGraphModel dx="2062" dy="1221" grid="1" gridSize="10" guides="1" tooltips="1" connect="1" arrows="1" fold="1" page="1" pageScale="1" pageWidth="1920" pageHeight="1200" math="0" shadow="0">
      <root>
        <mxCell id="0" />
        <mxCell id="1" parent="0" />
        <mxCell id="T0n8CZZ1Pmrx4sEwIJ8b-4" style="rounded=0;orthogonalLoop=1;jettySize=auto;html=1;exitX=1;exitY=0.5;exitDx=0;exitDy=0;entryX=0;entryY=0.5;entryDx=0;entryDy=0;fontSize=40;strokeWidth=5;" parent="1" source="T0n8CZZ1Pmrx4sEwIJ8b-1" target="T0n8CZZ1Pmrx4sEwIJ8b-2" edge="1">
          <mxGeometry relative="1" as="geometry" />
        </mxCell>
        <mxCell id="T0n8CZZ1Pmrx4sEwIJ8b-6" value="&lt;font style=&quot;font-size: 30px;&quot;&gt;infrequent queries&lt;/font&gt;" style="edgeLabel;html=1;align=center;verticalAlign=middle;resizable=0;points=[];fontSize=40;" parent="T0n8CZZ1Pmrx4sEwIJ8b-4" vertex="1" connectable="0">
          <mxGeometry x="0.3211" y="-6" relative="1" as="geometry">
            <mxPoint x="-67" y="7" as="offset" />
          </mxGeometry>
        </mxCell>
        <mxCell id="T0n8CZZ1Pmrx4sEwIJ8b-5" style="edgeStyle=none;rounded=0;orthogonalLoop=1;jettySize=auto;html=1;exitX=1;exitY=0.5;exitDx=0;exitDy=0;entryX=0;entryY=0.5;entryDx=0;entryDy=0;fontSize=40;strokeWidth=5;" parent="1" source="T0n8CZZ1Pmrx4sEwIJ8b-1" target="T0n8CZZ1Pmrx4sEwIJ8b-3" edge="1">
          <mxGeometry relative="1" as="geometry" />
        </mxCell>
        <mxCell id="T0n8CZZ1Pmrx4sEwIJ8b-1" value="&lt;font style=&quot;font-size: 40px;&quot;&gt;Application&lt;/font&gt;" style="rounded=0;whiteSpace=wrap;html=1;fillColor=#fff2cc;gradientColor=#ffd966;strokeColor=#d6b656;" parent="1" vertex="1">
          <mxGeometry x="80" y="480" width="320" height="120" as="geometry" />
        </mxCell>
        <mxCell id="T0n8CZZ1Pmrx4sEwIJ8b-2" value="&lt;span style=&quot;font-size: 40px;&quot;&gt;System A&lt;/span&gt;" style="rounded=0;whiteSpace=wrap;html=1;fillColor=#ffcd28;gradientColor=#ffa500;strokeColor=#d79b00;" parent="1" vertex="1">
          <mxGeometry x="800" y="280" width="320" height="120" as="geometry" />
        </mxCell>
        <mxCell id="T0n8CZZ1Pmrx4sEwIJ8b-3" value="&lt;span style=&quot;font-size: 40px;&quot;&gt;System B&lt;/span&gt;" style="rounded=0;whiteSpace=wrap;html=1;fillColor=#ffcd28;gradientColor=#ffa500;strokeColor=#d79b00;" parent="1" vertex="1">
          <mxGeometry x="800" y="680" width="320" height="120" as="geometry" />
        </mxCell>
        <mxCell id="T0n8CZZ1Pmrx4sEwIJ8b-7" value="&lt;font style=&quot;font-size: 30px;&quot;&gt;frequent queries&lt;/font&gt;" style="edgeLabel;html=1;align=center;verticalAlign=middle;resizable=0;points=[];fontSize=40;" parent="1" vertex="1" connectable="0">
          <mxGeometry x="579.9981794829749" y="659.9991141910122" as="geometry">
            <mxPoint x="18" as="offset" />
          </mxGeometry>
        </mxCell>
        <mxCell id="T0n8CZZ1Pmrx4sEwIJ8b-8" value="&lt;font style=&quot;font-size: 25px;&quot;&gt;expensive hardware&lt;/font&gt;" style="rounded=0;whiteSpace=wrap;html=1;fontSize=30;fillColor=#dae8fc;gradientColor=#7ea6e0;strokeColor=#6c8ebf;" parent="1" vertex="1">
          <mxGeometry x="800" y="800" width="320" height="40" as="geometry" />
        </mxCell>
        <mxCell id="T0n8CZZ1Pmrx4sEwIJ8b-9" value="&lt;font style=&quot;font-size: 25px;&quot;&gt;cheap hardware&lt;/font&gt;" style="rounded=0;whiteSpace=wrap;html=1;fontSize=30;fillColor=#dae8fc;gradientColor=#7ea6e0;strokeColor=#6c8ebf;" parent="1" vertex="1">
          <mxGeometry x="800" y="400" width="320" height="40" as="geometry" />
        </mxCell>
      </root>
    </mxGraphModel>
  </diagram>
</mxfile>
